<svg version="1" xmlns="http://www.w3.org/2000/svg" width="800" height="800" viewBox="0 0 600 600"><path d="M0 .9C0 1.4.7 2.3 1.5 3c1.9 1.6 1.9 5.9 0 6.6C.2 10.1 0 12.9.1 26.9c.1 9.1.4 15.7.9 14.6.4-1.1 1-3 1.5-4.3 1.1-3.3 4.2-2.8 5 .8.4 1.6 1 3 1.3 3 3 0 5.8 20.9 3.1 22.6-.7.4-3.6.6-6.6.5l-5.4-.2.5 71.8c.5 76 .9 85.5 3.2 87.4 1.7 1.4 1.8 4.1.2 5.7-.8.8-.8 3.9.1 12.6.6 6.4.8 13.3.5 15.6-.5 3.2-.3 4.1 1.1 4.6 1.2.5 1.3.9.4 1.4-.9.6-1 1.5-.1 3.7 1.7 4.2 5 19.4 4.8 22.4 0 1.4-.6 3.2-1.2 4-1.4 1.7-1.2 5.5.4 7.1 1.5 1.5 1.5 3.5.1 4-.8.3-.7.9.3 1.9 1.8 1.7 2.4 13.9.8 13.9-1.2 0-1.3 5.7-.1 6.4.5.3.7 1.5.4 2.5-.3 1 .3 3 1.2 4.4 1.1 1.8 1.3 2.6.4 2.9-1.6.5-.4 7.2 1.6 9.2 1.8 1.7 2 4.6.4 4.6-.6 0-.9.6-.6 1.4.3.8-.1 1.7-.9 2-1 .4-1.3 1.3-.9 2.5.3 1.1.1 2.2-.5 2.6-.5.3-1 2-1 3.6 0 1.8.4 2.8 1 2.4.5-.3 1-1.5 1-2.6 0-1 .4-1.9.9-1.9s.8 1.7.8 3.7c-.2 3-.6 3.7-1.9 3.5-1.4-.2-1.3.1.5 2.2 1.6 1.8 2.2 3.9 2.3 7.3.2 7.3 1.5 15.3 2.6 15.3.5 0 .7.8.4 1.7-.6 1.9-2 28.7-1.6 31.3.2 2.1.7 13.1.8 22.4.2 6.7.4 7.7 1.7 6.6.8-.6 2.3-.9 3.4-.5 1 .3 2.2.1 2.6-.4.5-1 6.3-.7 12.3.5 2.5.5 3 2.4.7 2.4-1.4 0-1.9 1.1-1.6 3.7.1.7-.7 1.3-1.9 1.3-1.1 0-2.9.9-4.1 2.1-1.6 1.6-1.8 2.3-.9 3.5.7.7 1.6 1.1 2.1.8 1.7-1 7.9-1.2 8.4-.3.3.4-.4 1.1-1.7 1.3-1.3.3-3.6.8-5.3 1.1-1.6.4-4.2.7-5.7.6-1.4 0-3.2.6-3.8 1.4-.8.9-.8 1.5-.2 1.5.6 0 1.2-.6 1.5-1.3.2-.6.8-.9 1.2-.5.4.4-1 2.7-3.2 5.1-6.6 7.2-10.3 16.9-18.2 48.5L0 545.1V600h230.7l1.2-5.5c.9-4.1 1-7.2.1-12.7-1.7-11.7-1.5-35.4.4-41.3 1.3-4.3 1.4-6.9.5-18.7-1.2-16.2-1.1-18.8.8-29.5 1.1-6.3 1.2-9.9.3-16.4-.5-4.6-1-17.6-1-28.9 0-15.2-.6-25-2.2-38-1.2-9.6-2.3-21.8-2.3-27-.1-8.5-.5-10.5-3.8-18.9-2.1-5.2-4.2-10-4.8-10.7-.6-.7-2-3.2-3.2-5.6-1.2-2.4-2.7-4.2-3.3-4.1-2.8.5-4.7-3.6-4.6-10.4 0-3.8-.5-7.7-1.2-8.8-4.7-7.4-12.2-28.1-14.4-39.9-1.4-7.3 0-11 1.6-4.3.7 2.5 1.9 4.8 2.8 5.1 2.4.9 2.8.1 1.7-3.1-.6-1.5-1.1-4.3-1.2-6.2-.1-1.9-.5-3.9-1-4.5-.5-.6-1.1-4-1.5-7.6-.7-7.2-2.3-19.4-3.2-25.4-.4-2.4 0-6.3 1.1-10.4 1.7-6.2 1.7-6.6 0-7.8-1-.7-1.5-1.9-1.2-2.7.3-.8.1-1.9-.5-2.5-.6-.6-.6-2.4.2-5.2.6-2.4.8-4.6.3-4.9-.7-.6-3.3-7-3.3-8.3 0-.4.7-1.3 1.5-2.2 1.2-1.2 1.4-2.8.7-8.9l-.8-7.5 3.1-2.5c1.7-1.3 3.9-4.3 5-6.6 1.7-3.5 2.4-4.1 5-4 3.3 0 8.7-1.1 18-3.6 3.3-.9 9.2-2.3 13.1-3 3.9-.7 8-1.7 9-2.3 4.1-2.1 18.5-4.1 30.9-4.2 12.3-.1 13.4-.2 19.2-3 3.8-1.8 7.8-3 10.3-3 2.3 0 4.9-.4 5.8-.9.9-.5 3.5-1.2 5.7-1.5 2.1-.4 4.8-1.5 6-2.6 2.5-2.4 8.9-4 18-4.5 9-.6 16.2 1.1 20 4.7 1.8 1.6 4.2 2.8 5.7 2.8 2.2 0 3.6 1.7 3.8 4.8 0 .1.6 1.7 1.3 3.5.8 1.7 1.2 3.8.9 4.6-.2.7 1 2.6 2.9 4.2l3.3 2.8-1.2 5.1c-1.2 5-.9 7.5.7 6.5 1.7-1 5.2 3.4 5.8 7.2.3 2.1 1.2 4.2 2 4.6.7.4 1.3 1.4 1.3 2.2 0 .8.9 1.9 1.9 2.5 1.1.5 2.3 2 2.7 3.2.7 2.4 3.6 6.8 6.7 10.5 1.1 1.2 1.6 2.6 1.3 3.2-.4.5-.2 1.2.4 1.6.5.3 1 1.8 1 3.2 0 1.5.6 3.4 1.4 4.2 1.7 1.9 3.5 7.7 4.6 14.6 2.1 12.6 3.6 16.5 6.5 16.5.7 0 1.6-.7 1.9-1.6.9-2.4 1.9-1 2.2 3.4.2 2 .9 6.7 1.5 10.4.9 5.1.9 7.7 0 11.3-.7 2.7-.9 6.2-.5 7.9.7 2.8.9 4.6 1.3 10 .1 1.4.4 1.6 1.5.7.7-.6 1.6-3.9 2-7.4.4-4.1 1.4-7.2 2.8-9.2 3-4 3.5-13.3 1.4-25.8-1.6-9.1-1.6-9.8.1-12.3 1.3-2 1.7-4.8 1.8-11.4 0-4.8.5-9.3 1.1-10.1.6-.8 1.4-3.5 1.7-6 .7-5-1.1-8.9-4-8.9-1.3 0-1.3-.3-.3-1.5.8-1 1-3 .5-6.2-.4-2.7-.9-9-1-14.2-.2-5.2-.7-11.1-1-13.2-.4-2-.3-3.9.2-4.2.5-.3 1-3.2 1.1-6.4.1-3.2.9-8.5 1.8-11.8.8-3.3 1.5-6.8 1.5-7.8 0-.9.5-1.7 1.2-1.7.8 0 .8-.3 0-1.1s-.8-2.3.2-5.5c.7-2.4 1-4.4.7-4.4-.3 0 .1-.6 1-1.3.9-.6 1.9-2.5 2.3-4.2.3-1.6 1.1-3.2 1.6-3.5.5-.4 1.3-3 1.9-5.9.9-4.6.8-5.6-.6-6.6-2-1.4-1.1-5.5 1.2-5.5 2 0 3.7-4.7 3.5-9.3-.2-2.1.4-4.6 1.1-5.5 2.1-2.5 4.8-11.3 4.6-14.7-.1-2.7.3-13.9 1.7-45.5.3-6.3.8-13.2 1.1-15.3l.6-3.7H226.1C97.1 0 0 .4 0 .9zm10 25.5c0 .3-.4.8-1 1.1-.5.3-1 .1-1-.4 0-.6.5-1.1 1-1.1.6 0 1 .2 1 .4zm413.1 211.7c-.6 1.6-.7 3.7-.4 4.6.4 1.1.2 1.4-.8 1.1-1-.4-1.3-1.9-1-5.9.1-3 .7-5.6 1.2-5.7.5-.2 1-1.1 1.1-2 0-1 .3-.2.5 1.6.3 1.9 0 4.7-.6 6.3zM170.5 415c-1.6 1.1-3.7 2-4.5 2-.8 0-.2-.9 1.5-2s3.7-2 4.5-2c.8 0 .2.9-1.5 2z"/><path d="M432.8 127.7c.7.3 1.6.2 1.9-.1.4-.3-.2-.6-1.3-.5-1.1 0-1.4.3-.6.6zM348.6 214.7c-1.1.3-3.2 1.7-4.7 3.2-1.8 1.8-4.7 3.2-8.5 4-7.2 1.5-13.9 4.7-16.2 7.6-1 1.2-2.7 2.7-3.8 3.3-3.3 1.7-8.4 12.6-8.4 17.7 0 3.8.3 4.4 3 5.5 1.7.7 3.2 1.1 3.3.9.2-.2 1.1-2.3 2.2-4.7 1.9-4.3 3.2-5.1 5.3-3 .9.9 1.2.8 1.2-.5 0-2.6 3.8-2.2 4.2.5.5 3.6 2.4 3.1 4.1-1.2 1.8-4.7 3.3-5.1 4.8-1.3 1.6 4.2 4.7 6.5 9.3 7 3.8.4 4.2.2 5.9-2.7.9-1.7 1.7-4.1 1.7-5.3.1-2 .2-2 1.3-.5.7.9 3.1 1.9 5.3 2.2 2.1.3 5.4.9 7.2 1.5 2.7.8 3.4.7 4.2-.9 1.7-3.1 1.3-10-.6-10-.8 0-1.3.4-1 .9.3.5-1.3.1-3.7-.7-3.3-1.3-7.6-1.6-20.4-1.5-8.9.2-16.5-.1-16.7-.6-.5-.8 13.4-8.1 15.5-8.1.5 0 .9-.6.9-1.4 0-.8 1.8-1.8 4-2.4 2.6-.6 4-.6 4 0 0 .5.6.8 1.3.5.6-.2 2.2.5 3.5 1.6 1.5 1.4 3.4 2 5.5 1.9 2.9-.2 3.5.2 4.7 3.2 1.4 3.7 3.7 5.3 5.3 3.7 1.6-1.6 1.9-8.2.7-12.7-1.6-5.8-3.2-7.1-6.2-5-3.4 2.4-7.9 2-10.7-.9-2.3-2.4-3.6-2.8-7.5-1.8zm-6.6 26.2c0 .6-.4 1.3-1 1.6-.5.3-1-.1-1-.9 0-.9.5-1.6 1-1.6.6 0 1 .4 1 .9zM227.4 234.9c.4.5.2 1.2-.3 1.6-.6.3-.8 1.2-.5 2 .4.8 1 1.2 1.5 1 .5-.3 2.2.1 3.9 1 3 1.5 6.3 2.4 18.5 4.6 3.3.6 6.4 1.5 6.9 2 1 .8-6.4 4.4-11.2 5.5-10 2.1-18.1 7.4-20.2 13-1.2 3.1 1.6 4 6.1 2 1.9-.8 4.2-1.7 5.2-2 1.1-.3 2.1-1.5 2.4-2.6.8-2.9 2.9-2.4 4.3 1 1.8 4.3 4.8 4.7 11.5 1.5 3.9-1.8 6.5-2.4 8.4-2 1.9.4 3.5 0 5.3-1.5 1.4-1.1 3.1-2 3.7-2 .6 0 1.1-.8 1.1-1.8 0-2.3 1.9-4.2 3.5-3.5.8.2 1.6-.5 2-1.7.5-1.6-.1-3.4-2.2-6.4-2.4-3.4-3.5-4.2-6.6-4.4-2-.2-3.7-.7-3.7-1.3 0-.5-.6-.9-1.3-.9-.8 0-2.2-.9-3.2-2-1.7-1.9-2.6-2-12.6-1.4-7.9.5-11.2.4-12.3-.5-1.8-1.6-11.1-2.7-10.2-1.2zm24.6 20.5c0 .3-.4.8-1 1.1-.5.3-1 .1-1-.4 0-.6.5-1.1 1-1.1.6 0 1 .2 1 .4zM415 270.2c0 3.6.4 3.5 1.4-.5.4-1.6.2-2.7-.4-2.7-.5 0-1 1.4-1 3.2zM321.7 288.1c-.6 2.4 1.6 6.4 5 9.2 2.7 2.2 3 6.3.6 7.5-1 .5-4.7 1.3-8.3 1.6-3.6.4-6.7 1.1-7 1.4-.9 1.3-8.8 5.2-10.3 5.2-1.9 0-6.7 2.1-6.7 2.9 0 .3 2.7 1.6 5.9 2.9 6.2 2.4 12.3 2.4 20.1-.1 1.9-.6 3.9-1 4.4-.9.5.2.6-.4.3-1.1-.6-1.5.8-2.4 7.6-5.1 2.3-1 4.1-2.5 4.7-4.2.6-1.5 1.3-2.4 1.7-2 .3.3 1.2.1 2-.6 1-.8 1.9-.6 3.8 1.2 3.1 2.9 4.2 2 2.6-1.9-1.3-2.9-5.6-7.3-6.4-6.5-.2.3-1.5-.8-2.8-2.4-1.4-1.5-4.6-3.8-7.2-5.1-2.6-1.2-4.7-2.7-4.7-3.2s-1.1-.9-2.4-.9c-1.6 0-2.6.7-2.9 2.1z"/><path d="M312 290c0 2.8 2.5 6.1 4.4 5.8 3.2-.5 3.2-4.1-.1-5.6-3.2-1.4-4.3-1.5-4.3-.2zM265.9 294.7c-8.6 9.6-12.7 15.6-14.9 22-1.2 3.8-2.7 7.3-3.2 8-1.3 1.6-2.7 13.2-2.1 16.5.6 3.2 4.6 5.3 6.2 3.4.6-.7 1.3-3.9 1.6-7.2.3-4.3 1.1-6.8 3.3-9.9 1.6-2.3 3.5-6 4.2-8.1.7-2.1 1.6-4.4 2-4.9.4-.6 1.5-3.4 2.5-6.3.9-2.9 2.7-6.5 3.9-8 2.8-3.4 3.7-5.8 3-7.7-1-2.4-2.8-1.8-6.5 2.2zM416.6 306.6c-.4 1-.2 2.2.3 2.7.7.7 1.3.5 1.7-.7.4-1 .2-2.2-.3-2.7-.7-.7-1.3-.5-1.7.7zM275 311c-1.3.9-1.2 1.2.4 2.5 1.1.8 2.7 1.5 3.6 1.5 2.1 0 5.6-2.5 4.4-3.2-2.1-1.3-7-1.7-8.4-.8zM311.3 336.8c-2.9 1-5.5 1.7-5.7 1.4-1-.9-19.9-.3-23.4.9-5.9 1.8-10.1 5.7-12.9 11.5-1.4 3-2.4 5.6-2.2 5.8.2.2 4.5.7 9.4 1 10.9.8 11.6.9 13.3 2 4.7 2.9 33.4 1.2 39.5-2.4 1.8-1.1 4.2-2.1 5.2-2.3 1.1-.2 4.4-1.1 7.3-2.1 2.9-1 6.6-1.6 8.2-1.4 1.9.3 3.1-.1 3.4-.9.6-1.5 0-2.3-6.9-9.8l-4.6-4.9-12.7-.3c-10.4-.3-13.6 0-17.9 1.5zm17.3 9.6c-.8 3.2-3.2 4.3-5.7 2.8-2.5-1.6-2.9-1.5-2.9.3 0 2-4.7 3.8-8.5 3.2-1.6-.2-4.5.2-6.4 1-1.9.8-4.6 1.2-6 .9-1.4-.3-5.1-.8-8.1-1.1-3-.3-6.1-1.2-6.9-2-1.8-1.7-.7-4.5 1.8-4.5 1 0 2.1-.7 2.5-1.5.7-1.9 4-1.9 5.5-.1 1 1.2 1.6 1.1 3.5-.9 3.2-3.2 7.3-2.3 9.2 1.9.7 1.7 1.3 2.5 1.4 1.8 0-.8.9-2.7 2.1-4.3 2.9-4.2 7.5-4.1 9.3.2l1.3 3.1.7-2.8c1.3-5.1 2.6-5.8 5.4-3.1 1.9 1.9 2.3 3.1 1.8 5.1zm5.4-1.6c0 1.3-1.2 2.2-2.2 1.6-1-.6-.1-2.4 1.3-2.4.5 0 .9.4.9.8zM412.1 348.2c-.4 1.3-1.1 4-1.5 6-.6 3.6-.4 4.1 5.4 10.3 7.6 8.2 10.5 14.4 12.1 25.8 1.1 7.8 1 9.4-.6 15-2.6 8.8-3.9 9.5-3.1 1.7.5-4.5.3-7.7-.7-10.5-1.3-3.8-1.4-3.4-2 10-.4 7.7-1.2 16-1.8 18.5-.5 2.5-7.9 18.9-16.3 36.5-22.6 47.1-23.1 48.1-30.5 65.2-3.8 8.7-11 24.8-16.1 35.8-5 11-9.8 21.5-10.6 23.4-.8 1.9-1.7 3.1-2 2.8-.3-.3-1.5-5.2-2.6-10.8-1-5.6-3.2-12.7-4.7-15.8-3.9-7.7-7.4-18.7-6.7-20.9.4-1 .8-6.1 1.1-11.3 1.1-21.8 2.3-32 3.7-33.2.9-.7 2.9-3.8 4.7-6.9 2.4-4.4 3.8-5.8 6.1-6.3 1.7-.4 3-1.1 3-1.6 0-1-14-12.7-17.3-14.6-1.2-.6-2.5-.9-3-.6-.4.3-1.9.2-3.3-.1-1.9-.5-2.4-1.1-1.9-2.6.6-1.9.1-2.2-3.2-1.9-.5 0-.7.7-.7 1.5.1 1-1 1.4-4.6 1.4-8.3 0-14.2-1.1-13.6-2.6.8-2.2-.5-1.7-6.4 2.3-9.7 6.4-19.9 17.8-26 28.7-3 5.5-5.8 10.8-6.2 11.8-1.2 3 2.5.1 6.8-5.3 2-2.6 4.2-4.5 4.8-4.2 1.4.6 9.6 10.9 9.6 12.1 0 .5 1.3 2.6 2.9 4.6 2 2.5 3.5 6.1 4.6 11.4.9 4.2 2.1 9.3 2.7 11.3.8 2.9.7 4.2-1.1 7.5-1.2 2.1-2.1 4.6-2.1 5.6 0 .9-3.3 8.4-7.2 16.6-4 8.2-7.8 16.2-8.5 17.8-4.6 11.4-6.3 15.9-6.3 16.6 0 .4 74.5.8 165.5.8H600V463.5l-11.3-4.3c-35.6-13.7-56.1-23.1-84.7-38.7-6.9-3.8-15.8-8.6-19.9-10.7-4.1-2.1-9.6-5.7-12.3-8-5.2-4.3-17.1-17.7-22.5-25.3-4.2-6-12-15.1-16.3-19.2-2.8-2.7-8.4-5.9-19.2-11.1-.5-.2-1.2.7-1.7 2z"/><path d="M402.7 358.4c-.6 1.5.1 2.6 1.5 2.6.4 0 .8-.9.8-2 0-2.3-1.5-2.7-2.3-.6zM400 361.5c0 1.5.4 2.4 1 2 .6-.3 1-1.2 1-2s-.4-1.7-1-2c-.6-.4-1 .5-1 2z"/><path d="M406.3 360.2c0 .7-.1 2.2-.2 3.3l-.2 2-.9-2c-.7-1.7-.9-1.7-.9-.3-.1 1-.6 1.8-1.2 1.8s-.9.9-.6 2c.3 1.1.2 2-.3 2-.4 0-1.1 1.1-1.4 2.5-.3 1.3-1.5 3.2-2.5 4.2s-2.4 3.5-3.2 5.5c-.7 2.1-1.6 3.8-2 3.8-.4 0-1.3 1.6-2 3.5-1 2.7-1.7 3.4-3.1 2.9-1-.3-1.8-.2-1.8.3 0 .4-3.3.9-7.4.9-5.8.1-8.2.6-11 2.3-4.5 2.8-8.9 7-10.5 9.9-.7 1.2-1.6 2-2.1 1.7-.5-.3-1.4.3-1.9 1.4-.9 1.5-2.6 2-9.2 2.6-5.4.5-8.2 1.2-8.6 2.1-.3.9-1.3 1.2-2.9.8-1.3-.3-2.4-.2-2.4.4 0 1.1-5.5 2.6-8.3 2.3-1-.2-2.5.3-3.2.9-.8.7-2.2.9-3.2.6-1.6-.6-9 1.1-15.8 3.6-1.6.6-5.8 1.3-9.2 1.6-3.5.2-6.3.8-6.3 1.2 0 .5-1 1-2.2 1.2-1.8.3-1.5.6 1.8 2.4 2.1 1.1 4 2.7 4 3.5.1.7.3 1.7.4 2.1.1.5.3 1.1.4 1.6.1 1 2.5 3.9 6.3 7.6 1.8 1.8 3.8 4.7 4.4 6.5.8 2.3 2.2 3.8 4.5 4.7 6.1 2.6 23.9 1 23.9-2.1 0-1.6 1.5-3.5 2.8-3.5.7 0 .6.4-.3 1-.8.5-1 1-.4 1 1.7 0 23.9-12.6 31.7-18 11.4-7.8 22.5-19.6 28-29.3 2.6-4.7 4.7-9 4.7-9.5s2.3-5.3 5.1-10.7c6.9-13.3 10.4-23.5 8-23.5-.5 0-.9.6-.8 1.2z"/><path d="M394 365c-.7.4-1.9.6-2.7.3-.7-.3-1.6.2-1.9 1.1-.5 1.2-1 1.4-1.9.6-1.6-1.3-5.5 2.3-5.5 5 0 .9-.4 2-.9 2.5-.6.6-.7 2.9-.4 5.2.7 5.1 3.3 6 7.9 2.6 1.7-1.2 3.4-1.9 3.8-1.6.3.4.6-.1.6-1 0-.8.7-2.3 1.5-3.1 1.8-1.8 3.2-11 1.8-11.9-.5-.3-1.5-.2-2.3.3zM321.9 369.6l-2.4 2.7 2.8-.5c3-.6 3.6.6 1 2.1-1 .5-1.8 2.2-1.9 3.8-.1 2.9-2.8 4.1-3 1.3-.1-.8-.2-2.1-.2-2.8-.3-1.7-7.6-1.6-9.1.2-.9 1.1-.5 1.6 1.9 2.6 3.7 1.5 3.8 2.5.3 3.8-2.3.9-1.5 1.1 4.9 1.1l7.7.1-.6-3.4c-.5-3-.3-3.5 1.8-3.8 2-.2 2.4-.8 2.2-3.7 0-1.8-.8-4-1.5-4.7-1.2-1.2-1.8-1.1-3.9 1.2zM234.1 387c0 .8.4 2.2.9 3 1.2 1.8 1.2.2 0-2.5-.6-1.3-.9-1.5-.9-.5zM27.5 468c.3.5 1.1 1 1.6 1 .6 0 .7-.5.4-1-.3-.6-1.1-1-1.6-1-.6 0-.7.4-.4 1z"/></svg>