<svg version="1" xmlns="http://www.w3.org/2000/svg" width="800" height="800" viewBox="0 0 600 600"><path d="M279.8.4c-.1.2-3.7.6-7.8 1-7.7.7-11.8 1.2-18 2.2-1.9.4-4.8.8-6.5 1.1-1.6.2-7.9 1.5-14 2.9-6 1.4-11.9 2.7-12.9 2.9-3.4.8-17.8 5.6-28.1 9.5C153.9 34.6 118 58 88 88c-10.7 10.8-16.9 17.6-22.5 25-2.8 3.5-5.4 6.9-5.8 7.5-11.6 14.8-25.9 39.6-35 60.5-.8 1.9-2.4 5.5-3.5 8-2.7 6.1-10.7 31.5-13.1 42-3.2 13.8-5.6 28-6.9 42-1.4 15.2-.5 59.7 1.3 66 .3.8.7 2.9.9 4.5 4.7 37.8 20.7 81.2 42.8 116.3 14.4 22.9 34.7 46.9 55.4 65.4 42.1 37.5 99.1 63.7 156 71.7 4 .6 10.3 1.4 14 1.8 9 1 43.5 1 54.9.1 7.9-.7 29.5-3.8 35-5.1 1.1-.3 5.2-1.3 9-2.2 3.9-.9 7.9-1.8 9.1-2.1 5-.9 29.3-9.8 41.1-14.9C465.8 555 509 521 538.4 482c3.1-4.1 6-8 6.6-8.7.5-.6 2.8-4 5-7.5s4.3-6.8 4.8-7.3c3.1-3.9 19.2-34.9 19.2-37 0-.8.5-1.5 1.2-1.5.6 0 .9-.3.5-.6-.3-.3.7-3.4 2.3-6.9 5.3-11.9 14.3-41.8 16.5-55.3.6-4 1.4-8.1 1.9-10.7.4-2.2 1.4-10.3 2.6-21.5.8-7.9.5-49-.4-55-.3-1.9-.8-5.5-1.1-8-2.3-18.6-6-35.2-12.2-54.5-24.8-77-80.6-141.2-153.6-176.9C402.4 16.3 372.9 7.3 341 3c-4.1-.6-8.8-1.3-10.5-1.6-3.3-.6-50.1-1.5-50.7-1z"/></svg>